PathFileType	4	(X/Y/Z)	/Users/itak/Documents/Research/Walk-IL/dataset/trc/00046_00004.trc
DataRate	CameraRate	NumFrames	NumMarkers	Units	OrigDataRate	OrigDataStartFrame	OrigNumFrames
100.000000	100.000000	4	53	mm	100.000000	120	482
Frame#	Time	RPSI			LPSI			L3			STRN			T10			C7			CLAV			RBAK			LBAK			LSHO			LUPA			LAEL			LAOL			LWTS			LWPS			LFRA			LIFD			LHPS			LHTS			RSHO			RUPA			RAEL			RAOL			RWTS			RWPS			RFRA			RIFD			RHTS			RHPS			RBHD			LFHD			RFHD			LBHD			LHIP			RASI			LASI			LKNE			LTHI			LANK			LTIP			LTOE			LMT1			LMT5			LHEE			RKNE			RTHI			RANK			RTIP			RTOE			RMT1			RMT5			RHEE			RHIP			
		X1	Y1	Z1	X2	Y2	Z2	X3	Y3	Z3	X4	Y4	Z4	X5	Y5	Z5	X6	Y6	Z6	X7	Y7	Z7	X8	Y8	Z8	X9	Y9	Z9	X10	Y10	Z10	X11	Y11	Z11	X12	Y12	Z12	X13	Y13	Z13	X14	Y14	Z14	X15	Y15	Z15	X16	Y16	Z16	X17	Y17	Z17	X18	Y18	Z18	X19	Y19	Z19	X20	Y20	Z20	X21	Y21	Z21	X22	Y22	Z22	X23	Y23	Z23	X24	Y24	Z24	X25	Y25	Z25	X26	Y26	Z26	X27	Y27	Z27	X28	Y28	Z28	X29	Y29	Z29	X30	Y30	Z30	X31	Y31	Z31	X32	Y32	Z32	X33	Y33	Z33	X34	Y34	Z34	X35	Y35	Z35	X36	Y36	Z36	X37	Y37	Z37	X38	Y38	Z38	X39	Y39	Z39	X40	Y40	Z40	X41	Y41	Z41	X42	Y42	Z42	X43	Y43	Z43	X44	Y44	Z44	X45	Y45	Z45	X46	Y46	Z46	X47	Y47	Z47	X48	Y48	Z48	X49	Y49	Z49	X50	Y50	Z50	X51	Y51	Z51	X52	Y52	Z52	X53	Y53	Z53	

121	1.2	-1235.021850585938	1079.339721679688	229.0646057128906	-1242.035522460938	1069.831665039062	64.78727722167969	-1244.00732421875	1128.398559570312	136.9852905273438	-1026.007202148438	1324.228881835938	133.1578521728516	-1273.045654296875	1272.058959960938	130.5007629394531	-1227.07763671875	1540.341552734375	114.6879425048828	-1068.665283203125	1449.722534179688	124.7520141601562	-1277.508422851562	1404.037963867188	196.6577453613281	-1243.026733398438	1496.092041015625	16.91330909729004	-1138.619995117188	1502.806762695312	-56.2541389465332	-1164.311401367188	1372.427368164062	-128.5166625976562	-1156.239868164062	1152.444458007812	-143.3198852539062	-1212.373657226562	1143.464721679688	-53.95783233642578	-1070.470092773438	901.30126953125	-75.76964569091797	-1146.509521484375	886.2622680664062	-118.568473815918	-1142.428466796875	1036.54931640625	-143.7877349853516	-1042.52880859375	721.0635375976562	-47.46577835083008	-1113.702880859375	796.1573486328125	-113.7345123291016	-1049.597778320312	807.4197998046875	-84.22673797607422	-1153.267700195312	1528.277709960938	292.3046875	-1167.205688476562	1459.274291992188	364.5970153808594	-1198.307495117188	1190.923583984375	395.4263000488281	-1196.87255859375	1161.224487304688	299.1946411132812	-1062.958129882812	933.7866821289062	370.4714660644531	-1126.767944335938	918.5909423828125	435.7089233398438	-1184.351196289062	1115.054321289062	412.7528076171875	-1041.273071289062	751.470947265625	355.3738708496094	-1026.468872070312	826.2297973632812	386.1656494140625	-1081.205688476562	820.3193969726562	436.9486694335938	-1186.956420898438	1714.502197265625	44.2774772644043	-1021.174865722656	1754.043701171875	180.6801300048828	-1013.856567382812	1753.679077148438	82.62547302246094	-1191.3173828125	1713.670776367188	189.0626068115234	-1147.787841796875	964.6453247070312	-46.61358642578125	-1021.846801757812	996.607421875	251.2790985107422	-1032.192749023438	1011.556701660156	16.44023513793945	-1095.067504882812	523.0092163085938	16.08213806152344	-1119.340209960938	655.7549438476562	-24.4184684753418	-1211.161499023438	42.5324592590332	19.36891174316406	-1179.12255859375	287.5097045898438	-0.1911678463220596	-996.0263671875	42.34304428100586	97.74456787109375	-1057.126953125	50.94412612915039	111.2607192993164	-1085.957153320312	43.29701232910156	8.816400527954102	-1283.377197265625	47.58833312988281	67.39418029785156	-1116.817626953125	528.0057373046875	279.3457641601562	-1098.34765625	794.63818359375	325.2903442382812	-1234.23486328125	45.27580261230469	259.3932800292969	-1142.14306640625	404.3836669921875	280.2962951660156	-1001.817932128906	46.59576416015625	214.7530975341797	-1065.37646484375	51.97945785522461	185.7098388671875	-1084.53173828125	45.14764785766602	279.589599609375	-1288.982421875	45.84012985229492	214.1402740478516	-1121.751098632812	963.6552734375	328.9481506347656	
122	1.21	-1234.121337890625	1079.465698242188	228.2352447509766	-1241.18505859375	1069.925415039062	63.99341201782227	-1243.093994140625	1128.48828125	136.1289978027344	-1024.775146484375	1324.013916015625	132.0668334960938	-1271.951904296875	1272.215576171875	129.6156005859375	-1225.540283203125	1540.429931640625	113.607551574707	-1067.226684570312	1449.5751953125	123.6447067260742	-1276.10791015625	1404.240112304688	195.7113800048828	-1241.59619140625	1496.171508789062	15.92420673370361	-1137.253173828125	1502.691162109375	-57.35349655151367	-1163.182373046875	1372.330932617188	-129.5923614501953	-1155.490112304688	1152.3544921875	-144.3750762939453	-1211.511108398438	1143.439575195312	-54.95909118652344	-1069.841796875	901.1867065429688	-76.82981872558594	-1145.89599609375	886.1676025390625	-119.5278015136719	-1141.735473632812	1036.439819335938	-144.8073577880859	-1041.966064453125	720.9127807617188	-48.42885208129883	-1113.182250976562	796.044189453125	-114.7063522338867	-1049.000610351562	807.2683715820312	-85.20880126953125	-1151.634399414062	1528.348754882812	291.1886901855469	-1165.606567382812	1459.383544921875	363.5272827148438	-1197.0556640625	1191.089233398438	394.5016784667969	-1195.74169921875	1161.3427734375	298.2846069335938	-1061.980712890625	933.8045654296875	369.5930786132812	-1125.73095703125	918.6890258789062	434.8835754394531	-1183.096435546875	1115.218994140625	411.9129943847656	-1040.317504882812	751.5665893554688	354.5445556640625	-1025.599365234375	826.1810302734375	385.294677734375	-1080.271850585938	820.4113159179688	436.149658203125	-1184.741333007812	1714.47314453125	42.77889633178711	-1019.56396484375	1753.87939453125	179.9973907470703	-1011.778137207031	1753.451782226562	82.04689788818359	-1189.76708984375	1713.666137695312	187.5613861083984	-1147.17041015625	964.4983520507812	-47.44479751586914	-1021.066528320312	996.4498291015625	250.3192138671875	-1031.583618164062	1011.329833984375	15.51582050323486	-1094.736328125	522.8204345703125	15.68080902099609	-1118.84814453125	655.5592041015625	-24.94086647033691	-1211.177734375	42.50033187866211	19.3299617767334	-1178.820922851562	287.3501281738281	-0.4032339453697205	-996.088134765625	42.37210845947266	97.78780364990234	-1057.16259765625	50.93042755126953	111.2904739379883	-1085.978515625	43.32875823974609	8.832638740539551	-1283.390380859375	47.53409576416016	67.36064147949219	-1116.411499023438	528.0109252929688	278.8720703125	-1097.730346679688	794.6360473632812	324.5609436035156	-1234.223022460938	45.3115348815918	259.3684387207031	-1141.848022460938	404.4099426269531	279.8689575195312	-1001.806335449219	46.59831619262695	214.7538604736328	-1065.386962890625	51.97035980224609	185.7185974121094	-1084.529907226562	45.14836120605469	279.5850219726562	-1288.968505859375	45.85190582275391	214.1136322021484	-1120.87548828125	963.6703491210938	328.0733337402344	
123	1.22	-1233.187255859375	1079.582275390625	227.3776550292969	-1240.294921875	1069.99658203125	63.19947052001953	-1242.146728515625	1128.575927734375	135.2669219970703	-1023.496887207031	1323.786743164062	130.9333953857422	-1270.8251953125	1272.377563476562	128.7143249511719	-1223.956787109375	1540.518676757812	112.4935913085938	-1065.720703125	1449.410034179688	122.5127105712891	-1274.64892578125	1404.446655273438	194.7596435546875	-1240.130493164062	1496.255737304688	14.90978622436523	-1135.849609375	1502.567749023438	-58.48368453979492	-1162.029418945312	1372.229736328125	-130.69287109375	-1154.703369140625	1152.259765625	-145.4521484375	-1210.619873046875	1143.4130859375	-55.98552703857422	-1069.179443359375	901.0629272460938	-77.92136383056641	-1145.262084960938	886.0712890625	-120.5226669311523	-1141.02490234375	1036.333984375	-145.8598480224609	-1041.403564453125	720.7872924804688	-49.47468566894531	-1112.647094726562	795.9203491210938	-115.7200241088867	-1048.4111328125	807.1162719726562	-86.25293731689453	-1149.91943359375	1528.41455078125	290.0354309082031	-1163.9326171875	1459.492919921875	362.4315795898438	-1195.770874023438	1191.268920898438	393.56640625	-1194.568237304688	1161.46728515625	297.379638671875	-1061.025268554688	933.81298828125	368.7236022949219	-1124.723754882812	918.7882690429688	434.0641479492188	-1181.834838867188	1115.391723632812	411.059814453125	-1039.536743164062	751.5869140625	353.7240600585938	-1024.828491210938	826.101318359375	384.4202270507812	-1079.392822265625	820.4923706054688	435.3447265625	-1182.445922851562	1714.441650390625	41.23352813720703	-1017.8955078125	1753.707763671875	179.2888488769531	-1009.640991210938	1753.204345703125	81.43260192871094	-1188.140991210938	1713.667602539062	186.0227508544922	-1146.545532226562	964.3308715820312	-48.31174087524414	-1020.260559082031	996.281494140625	249.3137664794922	-1030.969848632812	1011.106506347656	14.54310417175293	-1094.364990234375	522.6083984375	15.26484203338623	-1118.36572265625	655.3701782226562	-25.49644088745117	-1211.194702148438	42.46493530273438	19.2871150970459	-1178.512329101562	287.189453125	-0.6345310807228088	-996.1581420898438	42.40008163452148	97.83934783935547	-1057.197631835938	50.91269683837891	111.3214340209961	-1085.992919921875	43.35422134399414	8.852472305297852	-1283.404418945312	47.47779846191406	67.32224273681641	-1115.945068359375	528.0150146484375	278.3805541992188	-1097.075561523438	794.6484985351562	323.7904052734375	-1234.209106445312	45.34761047363281	259.3432006835938	-1141.525634765625	404.441650390625	279.4319763183594	-1001.796936035156	46.59749984741211	214.7504730224609	-1065.40380859375	51.96089553833008	185.7351379394531	-1084.528564453125	45.15006637573242	279.5805358886719	-1288.948852539062	45.86217498779297	214.0888824462891	-1119.93896484375	963.6812744140625	327.1668395996094	
124	1.23	-1232.205200195312	1079.687255859375	226.5008850097656	-1239.378662109375	1070.041748046875	62.39849853515625	-1241.163940429688	1128.661865234375	134.4036712646484	-1022.181884765625	1323.548706054688	129.754150390625	-1269.661743164062	1272.543823242188	127.8039245605469	-1222.324829101562	1540.5986328125	111.3527679443359	-1064.1630859375	1449.23046875	121.3486328125	-1273.1416015625	1404.655029296875	193.7982940673828	-1238.632202148438	1496.343627929688	13.8662281036377	-1134.410888671875	1502.437133789062	-59.6433219909668	-1160.846435546875	1372.12548828125	-131.8141326904297	-1153.875244140625	1152.159423828125	-146.5467071533203	-1209.700439453125	1143.38671875	-57.03433990478516	-1068.486572265625	900.925537109375	-79.03738403320312	-1144.618041992188	885.973876953125	-121.5555725097656	-1140.29833984375	1036.22998046875	-146.9435119628906	-1040.83984375	720.6828002929688	-50.58772659301758	-1112.098022460938	795.787841796875	-116.7741241455078	-1047.825927734375	806.9591674804688	-87.35519409179688	-1148.124267578125	1528.468994140625	288.8422241210938	-1162.18994140625	1459.600341796875	361.3060302734375	-1194.448120117188	1191.464111328125	392.6257629394531	-1193.349975585938	1161.598388671875	296.4837341308594	-1060.093383789062	933.8110961914062	367.8565063476562	-1123.751953125	918.890380859375	433.246826171875	-1180.570922851562	1115.572875976562	410.19140625	-1038.957885742188	751.501220703125	352.9106140136719	-1024.154541015625	825.9981689453125	383.5431213378906	-1078.56396484375	820.56396484375	434.5324401855469	-1180.068969726562	1714.403930664062	39.63838958740234	-1016.176452636719	1753.527221679688	178.5596923828125	-1007.448181152344	1752.941650390625	80.78491973876953	-1186.449096679688	1713.669799804688	184.4423828125	-1145.924194335938	964.1434326171875	-49.22335433959961	-1019.4052734375	996.108154296875	248.2628021240234	-1030.34423828125	1010.888977050781	13.52204513549805	-1093.932495117188	522.3748779296875	14.83618450164795	-1117.892822265625	655.1904907226562	-26.09178161621094	-1211.2109375	42.42449188232422	19.23990821838379	-1178.19677734375	287.0297241210938	-0.8887074589729309	-996.2367553710938	42.42582321166992	97.89991760253906	-1057.231323242188	50.88968658447266	111.3522644042969	-1085.999389648438	43.3713493347168	8.875696182250977	-1283.418334960938	47.41916275024414	67.27836608886719	-1115.411743164062	528.014404296875	277.8644104003906	-1096.381469726562	794.6710205078125	322.97900390625	-1234.193481445312	45.38461685180664	259.31689453125	-1141.180541992188	404.474365234375	278.988037109375	-1001.789306640625	46.59410095214844	214.7437744140625	-1065.427124023438	51.95146179199219	185.7590026855469	-1084.526977539062	45.15401840209961	279.5757141113281	-1288.922485351562	45.87092590332031	214.0665893554688	-1118.94189453125	963.6863403320312	326.2290954589844	
